<svg width="65" height="65" viewBox="0 0 65 65" fill="none" xmlns="http://www.w3.org/2000/svg">
<path d="M14.1971 37.291L0 25.7292L32.5 0L65 25.7292L50.8029 37.291C47.5258 30.466 40.5654 25.7292 32.5 25.7292C24.4373 25.7292 17.4742 30.4633 14.1971 37.291ZM32.5 27.0833C27.4719 27.0833 22.6498 29.0807 19.0944 32.6361C15.5391 36.1915 13.5417 41.0136 13.5417 46.0417C13.5417 51.0697 15.5391 55.8919 19.0944 59.4472C22.6498 63.0026 27.4719 65 32.5 65C37.5281 65 42.3502 63.0026 45.9056 59.4472C49.4609 55.8919 51.4583 51.0697 51.4583 46.0417C51.4583 41.0136 49.4609 36.1915 45.9056 32.6361C42.3502 29.0807 37.5281 27.0833 32.5 27.0833Z" fill="#248194"/>
</svg>
